<svg width="38" height="38" viewBox="0 0 38 38" fill="none" xmlns="http://www.w3.org/2000/svg">
<path d="M20.65 34.0822L20.65 34.366L20.9316 34.3302C24.8274 33.8345 28.3884 31.8739 30.8906 28.847C33.3929 25.82 34.6487 21.9539 34.4027 18.0343C34.1568 14.1147 32.4276 10.4358 29.5667 7.7454C26.7057 5.05497 22.9276 3.55487 19.0003 3.55L19.0002 3.55C15.0681 3.54707 11.2828 5.04351 8.41566 7.7344C5.54851 10.4253 3.81523 14.1081 3.569 18.0325C3.32277 21.9569 4.58212 25.8275 7.09044 28.8557C9.59877 31.8838 13.1673 33.8417 17.0689 34.3303L17.35 34.3655V34.0822V22.8V22.55H17.1H13.55V19.25H17.1H17.35V19V15.8574C17.35 13.3377 17.6137 12.4623 18.0807 11.5839L18.081 11.5834C18.544 10.7085 19.2598 9.99333 20.1351 9.53107L20.1366 9.53028C20.8177 9.16477 21.6798 8.93519 23.2396 8.83559C23.7965 8.80005 24.5159 8.83783 25.4019 8.95588V12.0981H24.7019C23.8292 12.0981 23.2023 12.1184 22.7366 12.1692C22.2724 12.2197 21.949 12.3022 21.6938 12.4384C21.3927 12.5939 21.1474 12.8393 20.992 13.1405C20.7312 13.6321 20.6519 14.1202 20.6519 15.8555V19V19.25H20.9019H25.3317L24.5067 22.55H20.9019H20.6519L20.6519 22.8L20.65 34.0822ZM19 37.75C8.64437 37.75 0.25 29.3556 0.25 19C0.25 8.64437 8.64437 0.25 19 0.25C29.3556 0.25 37.75 8.64437 37.75 19C37.75 29.3556 29.3556 37.75 19 37.75Z" fill="#02CDCF" stroke="black" stroke-width="0.5"/>
</svg>
