<svg width="43" height="40" viewBox="0 0 43 40" fill="none" xmlns="http://www.w3.org/2000/svg">
<path d="M17.7198 11.5176V24.3148L28.1302 30.5002L29.9022 27.9407L21.0423 22.8218V11.5176H17.7198Z" fill="black"/>
<path d="M35.2626 18.6713C35.5965 20.7912 35.4493 22.9557 34.8311 25.0156C34.2129 27.0755 33.1384 28.9819 31.6817 30.6036C30.2249 32.2253 28.4205 33.5237 26.3926 34.4094C24.3647 35.2951 22.1616 35.7471 19.9349 35.7343C11.2964 35.7343 4.42998 29.1224 4.42998 20.8042C4.42998 12.4859 11.2964 5.87403 19.9349 5.87403C21.4854 5.87403 22.9694 6.08731 24.3649 6.49256V2.09884C22.9473 1.77891 21.4632 1.60828 19.9349 1.60828C8.85995 1.60828 0 10.1398 0 20.8042C0 31.4685 8.85995 40 19.9349 40C22.7428 40.0113 25.5212 39.4488 28.0868 38.3498C30.6523 37.2508 32.9465 35.6402 34.8179 33.6245C36.6894 31.6087 38.0955 29.2337 38.9434 26.656C39.7914 24.0784 40.0618 21.357 39.7369 18.6713H35.2626Z" fill="black"/>
<path d="M36.355 6.39863V0H31.9251V6.39863H25.2801V10.6644H31.9251V17.063H36.355V10.6644H43V6.39863H36.355Z" fill="black"/>
</svg>
