<svg width="40" height="40" viewBox="0 0 40 40" fill="none" xmlns="http://www.w3.org/2000/svg">
<path d="M20.0012 1C9.52476 1 1 9.52239 1 20C1 30.4776 9.52476 39 20.0012 39C30.4776 39 39.0024 30.4776 39.0024 20C39.0024 9.52239 30.4776 1 20.0012 1ZM20.0012 37.7344C10.2227 37.7344 2.26793 29.7785 2.26793 20C2.26793 10.2215 10.2227 2.26556 20.0012 2.26556C29.7796 2.26556 37.7344 10.2215 37.7344 20C37.7344 29.7785 29.7796 37.7344 20.0012 37.7344Z" fill="#02CDCF" stroke="#02CDCF"/>
<path d="M30.422 14.1306C30.5535 13.8873 30.6618 13.6322 30.7455 13.3686C30.7843 13.2464 30.7851 13.1153 30.7478 12.9926C30.7105 12.8699 30.6368 12.7614 30.5366 12.6814C30.4363 12.6014 30.3142 12.5537 30.1862 12.5446C30.0583 12.5355 29.9306 12.5654 29.8201 12.6304C29.2129 12.9911 28.5556 13.2599 27.8696 13.4279C27.0369 12.6763 25.9554 12.2597 24.8337 12.2583C24.2242 12.2588 23.6212 12.3823 23.0607 12.6215C22.5001 12.8606 21.9937 13.2105 21.5717 13.6501C21.1496 14.0898 20.8207 14.6101 20.6046 15.1799C20.3885 15.7497 20.2897 16.3573 20.3141 16.9662C17.6491 16.6307 15.2156 15.2822 13.5183 13.2004C13.4532 13.1215 13.3701 13.0595 13.276 13.0196C13.1819 12.9797 13.0795 12.9632 12.9776 12.9713C12.8757 12.9794 12.7773 13.0121 12.6907 13.0664C12.6041 13.1207 12.5319 13.1951 12.4802 13.2833C12.0916 13.9504 11.8803 14.7059 11.8666 15.4778C11.853 16.2497 12.0373 17.0122 12.402 17.6926C12.3126 17.7077 12.2266 17.739 12.1484 17.7851C12.0526 17.8462 11.9737 17.9304 11.9191 18.03C11.8644 18.1296 11.8357 18.2414 11.8356 18.355C11.8356 19.7 12.434 20.9347 13.3986 21.7737L13.3571 21.8152C13.2843 21.8976 13.2342 21.9975 13.2117 22.1051C13.1893 22.2128 13.1953 22.3244 13.2291 22.429C13.4303 23.0565 13.7661 23.6324 14.2131 24.1165C14.6602 24.6006 15.2076 24.9811 15.8171 25.2315C14.5653 25.8422 13.1644 26.0803 11.7811 25.9176C11.6389 25.9031 11.4959 25.9362 11.3745 26.0117C11.2532 26.0871 11.1603 26.2008 11.1104 26.3347C11.0625 26.4696 11.0616 26.6168 11.1078 26.7523C11.1541 26.8878 11.2448 27.0037 11.3652 27.0812C13.2457 28.2882 15.4335 28.9294 17.6681 28.9286C24.9913 28.9286 29.3686 22.98 29.3686 17.2293L29.3674 17.035C30.0771 16.4809 30.6936 15.8168 31.1935 15.0679C31.2692 14.9547 31.3064 14.8201 31.2996 14.6841C31.2929 14.5481 31.2425 14.4178 31.1559 14.3127C31.0694 14.2075 30.9513 14.133 30.8191 14.1002C30.6869 14.0674 30.5477 14.0781 30.422 14.1306ZM28.3542 16.2102C28.2683 16.272 28.1991 16.3544 28.1532 16.4499C28.1072 16.5453 28.0859 16.6507 28.0912 16.7565C28.0983 16.9129 28.1018 17.0717 28.1018 17.2281C28.1018 22.3567 24.1997 27.6619 17.6693 27.6619C16.5045 27.6624 15.348 27.4669 14.2482 27.0836C15.5654 26.8312 16.8028 26.2663 17.8565 25.4365C17.9591 25.3556 18.0341 25.245 18.0715 25.1199C18.1088 24.9947 18.1066 24.8611 18.0651 24.7372C18.0236 24.6134 17.9448 24.5054 17.8396 24.428C17.7344 24.3506 17.6079 24.3076 17.4773 24.3048C16.9664 24.2951 16.4649 24.1654 16.0133 23.9262C15.5617 23.687 15.1726 23.345 14.8774 22.9279C15.1772 22.9077 15.4711 22.858 15.7567 22.7809C15.8949 22.7439 16.0165 22.6612 16.1017 22.5462C16.1868 22.4312 16.2305 22.2908 16.2255 22.1478C16.2206 22.0048 16.1673 21.8677 16.0744 21.7589C15.9815 21.65 15.8545 21.5759 15.714 21.5486C15.137 21.4312 14.6027 21.1591 14.1683 20.7615C13.734 20.3639 13.4159 19.8556 13.2481 19.2912C13.5633 19.3706 13.8868 19.4168 14.2103 19.4274C14.4888 19.4263 14.7471 19.2556 14.8336 18.9878C14.9201 18.72 14.8182 18.4249 14.5824 18.2685C14.0248 17.897 13.5955 17.3625 13.3531 16.7379C13.1107 16.1133 13.067 15.4291 13.2279 14.7788C15.2863 16.8908 18.0657 18.1484 21.0109 18.3005C21.2195 18.3017 21.402 18.2271 21.5287 18.0742C21.6555 17.9213 21.7041 17.7187 21.6591 17.5244C21.497 16.8264 21.5695 16.0945 21.8653 15.4419C22.1612 14.7893 22.6638 14.2524 23.2956 13.9142C23.9273 13.5761 24.6529 13.4556 25.36 13.5714C26.0671 13.6872 26.7163 14.0328 27.2072 14.5548C27.2808 14.6333 27.3731 14.6918 27.4755 14.7247C27.5779 14.7577 27.687 14.7641 27.7926 14.7432C27.9881 14.7041 28.1812 14.6591 28.372 14.6069C28.286 14.6713 28.1966 14.731 28.1042 14.7859C27.9813 14.8611 27.8878 14.976 27.8389 15.1116C27.7901 15.2472 27.7889 15.3953 27.8355 15.5317C27.8822 15.668 27.9739 15.7844 28.0955 15.8617C28.2172 15.9389 28.3615 15.9724 28.5047 15.9566L28.7204 15.9294C28.6016 16.0272 28.4795 16.1209 28.3542 16.2102Z" fill="#02CDCF"/>
</svg>
